# xmcd
#
# Track frame offsets:
#	150
#	20057
#	35054
#	56674
#	68174
#	84787
#	101011
#	112033
#	134448
#	151874
#	166576
#	184919
#	201611
#	218732
#
# Disc length: 3149
#
# Revision: 1
# Processed by: cddbd v1.5.1PL0 Copyright (c) Steve Scherf et al.
# Submitted via: CDex 1.50beta9
# Normalized: r0:TDELIM( - )
#
DISCID=c50c4b0e
DTITLE=Various Artist - Hot Hits - Dancin' Country - Vol 11
DYEAR=1998
DGENRE=Country
TTITLE0=Clint Black - Loosen Up My Strings
TTITLE1=The Tractors - Shortenin' Bread
TTITLE2=Chad Brock - Evangeline
TTITLE3=George Strait - We Really Shouldn't Be Doing This
TTITLE4=Brad Hawkins - Come Back To Me Blues
TTITLE5=Terri Clark - You're Easy On The Eyes
TTITLE6=Diamond Rio - Unbelievable
TTITLE7=The Groovegrass Boyz - Howdy
TTITLE8=Alan Jackson - Right On The Money
TTITLE9=Blackhawk - There You Have It
TTITLE10=Keith Harling - Papa Bear
TTITLE11=Brooks and Dunn - How Long Gone
TTITLE12=Dwight Yoakam - Things Change
TTITLE13=Trisha Yearwood - There Goes My Baby
EXTD=YEAR: 1998
EXTT0=
EXTT1=
EXTT2=
EXTT3=
EXTT4=
EXTT5=
EXTT6=
EXTT7=
EXTT8=
EXTT9=
EXTT10=
EXTT11=
EXTT12=
EXTT13=
PLAYORDER=
